# xmcd
#
# Track frame offsets:
#	150
#	11689
#	23673
#	35647
#	45574
#	59764
#	71418
#	83795
#	95203
#	105683
#	118435
#	134689
#	146644
#	159351
#	168931
#	182915
#	197505
#	211152
#	223677
#	237811
#
# Disc length: 3333 seconds
#
# Revision: 1
# Processed by: cddbd v1.5.2PL0 Copyright (c) Steve Scherf et al.
# Submitted via: audiograbber 1.83.01
#
DISCID=270d0314
DTITLE=Henri Salvador - Chefs-d'oeuvre de la Chanson Française
DYEAR=2001
DGENRE=Chanson
TTITLE0=Prends-Moi Dans Tes Bras
TTITLE1=Armstrong, Duke Ellington, Cab Calloway
TTITLE2=La Vie Grise
TTITLE3=Chanson Surréaliste "I"
TTITLE4=S'Amuse
TTITLE5=J'Aurais Bien Donné Dix Ans De Ma Vie
TTITLE6=Comme Ca
TTITLE7=Je Ne Suis Pas
TTITLE8=Adieu Foulards, Adieu Madras
TTITLE9=La Samba De La-Bas
TTITLE10=Ciel De Paris
TTITLE11=Le Petit Souper Aux Chandelles
TTITLE12=Ma Doudou
TTITLE13=C'est Le Be-Bop
TTITLE14=Maria De Bahia
TTITLE15=Chinatown, My Chinatown
TTITLE16=Monsieur Le Bon Dieu
TTITLE17=Que Si, Que No
TTITLE18=Si Jolie
TTITLE19=Le Scaphandrier
EXTD=
EXTT0=
EXTT1=
EXTT2=
EXTT3=
EXTT4=
EXTT5=
EXTT6=
EXTT7=
EXTT8=
EXTT9=
EXTT10=
EXTT11=
EXTT12=
EXTT13=
EXTT14=
EXTT15=
EXTT16=
EXTT17=
EXTT18=
EXTT19=
PLAYORDER=
